<svg width="17" height="22" viewBox="0 0 17 22" fill="none" xmlns="http://www.w3.org/2000/svg">
<path d="M15.8719 6.50711L13.5621 21.1558C13.4855 21.6419 13.0665 22 12.5743 22H8.32446H4.07459C3.58244 22 3.16345 21.6419 3.0868 21.1558L1.90732 13.6757L0.776969 6.50711C0.681272 5.90021 1.15037 5.35135 1.76476 5.35135H14.8841C15.4985 5.35135 15.9676 5.90021 15.8719 6.50711Z" fill="#FF0000"/>
<rect x="2.97314" y="7.30945" width="1.18919" height="12.4865" rx="0.594595" transform="rotate(-8.42805 2.97314 7.30945)" fill="white"/>
<rect x="12.5664" y="7.13513" width="1.18919" height="12.4865" rx="0.594595" transform="rotate(8.43 12.5664 7.13513)" fill="white"/>
<rect x="7.76318" y="7.13513" width="1.18919" height="12.4865" rx="0.594595" fill="white"/>
<path d="M0 3.78378C0 2.67921 0.89543 1.78378 2 1.78378H14.6486C15.7532 1.78378 16.6486 2.67921 16.6486 3.78378V4.16216H0V3.78378Z" fill="#FF0000"/>
<rect x="5.35156" width="5.94595" height="1.18919" rx="0.594595" fill="#FF0000"/>
</svg>
